<?xml version="1.0" standalone="no"?>
<!DOCTYPE svg PUBLIC "-//W3C//DTD SVG 20010904//EN"
 "http://www.w3.org/TR/2001/REC-SVG-20010904/DTD/svg10.dtd">
<svg version="1.0" xmlns="http://www.w3.org/2000/svg"
 width="16.000000pt" height="16.000000pt" viewBox="0 0 16.000000 16.000000"
 preserveAspectRatio="xMidYMid meet">
<metadata>
Created by potrace 1.11, written by Peter Selinger 2001-2013
</metadata>
<g transform="translate(0.000000,16.000000) scale(0.002286,-0.002286)"
fill="#000000" stroke="none">
<path d="M1490 4515 l0 -256 520 7 520 7 0 -669 c-1 -513 -4 -683 -14 -729
-30 -138 -93 -224 -196 -266 -47 -20 -73 -23 -185 -24 l-130 0 -79 38 c-96 45
-160 92 -248 182 l-66 66 -171 -182 c-94 -101 -171 -189 -171 -196 0 -20 167
-189 233 -236 225 -158 463 -219 765 -196 139 11 290 48 401 100 189 87 332
248 402 452 59 172 59 171 59 1208 l0 949 -820 0 -820 0 0 -255z"/>
<path d="M3960 4520 l0 -250 526 0 525 0 -4 -672 c-3 -422 -8 -690 -15 -718
-35 -148 -94 -229 -198 -271 -52 -21 -75 -24 -189 -24 -117 1 -136 3 -191 27
-90 38 -179 101 -259 184 l-71 72 -172 -185 -172 -185 22 -30 c32 -45 125
-138 187 -186 213 -168 491 -246 791 -221 507 40 798 305 860 779 5 44 10 463
10 1003 l0 927 -825 0 -825 0 0 -250z"/>
</g>
</svg>
